<svg xmlns="http://www.w3.org/2000/svg" width="304" height="120" fill="none"><g filter="url(#a)"><path fill="#000" d="M4 0h296v112H4z"/><path fill="url(#b)" fill-rule="evenodd" d="M143.773 21.724a.998.998 0 0 0 .654-.768l1.228-6.874c.019-.11.177-.11.197 0l1.227 6.874a.998.998 0 0 0 .654.768l4.893 1.713a.1.1 0 0 1 0 .188l-4.893 1.713a.999.999 0 0 0-.654.768l-1.227 6.874c-.02.11-.178.11-.197 0l-1.228-6.874a.999.999 0 0 0-.654-.768l-4.893-1.713a.1.1 0 0 1 0-.188l4.893-1.713Zm11.509 6.948a1 1 0 0 1-.649.77l-7.188 2.566a.1.1 0 0 0 0 .189l7.188 2.567a1 1 0 0 1 .649.77l1.801 10.291c.02.11.178.11.197 0l1.801-10.292a1 1 0 0 1 .649-.77l7.188-2.566a.1.1 0 0 0 0-.189l-7.188-2.567a1.002 1.002 0 0 1-.649-.77l-1.801-10.29c-.019-.11-.177-.112-.197-.001l-1.801 10.292Zm11.066 16.483a.999.999 0 0 0 .648-.769l.802-4.578c.019-.11.177-.11.197 0l.801 4.578a1 1 0 0 0 .648.77l3.188 1.138a.1.1 0 0 1 0 .188l-3.188 1.139a1 1 0 0 0-.648.77l-.802 4.577c-.019.11-.177.11-.196 0l-.802-4.578a1 1 0 0 0-.648-.77l-3.188-1.138a.1.1 0 0 1 0-.188l3.188-1.139ZM61.477 75.032c13.434-5.679 53.956-21.501 88.419-21.501 34.435 0 76.265 15.797 90.216 21.488l.115-.048c1.461-.608 3.082-.912 4.864-.912 1.781 0 3.402.304 4.864.912 1.461.597 2.709 1.43 3.744 2.496 1.045 1.056 1.85 2.31 2.416 3.76.576 1.44.864 3.003.864 4.688 0 1.696-.288 3.27-.864 4.72-.566 1.45-1.371 2.704-2.416 3.76-1.035 1.056-2.283 1.888-3.744 2.496-1.462.597-3.083.896-4.864.896-1.782 0-3.403-.299-4.864-.896-1.462-.608-2.715-1.44-3.76-2.496-1.046-1.056-1.856-2.31-2.432-3.76-.566-1.45-.848-3.024-.848-4.72 0-1.696.282-3.264.848-4.704.576-1.45 1.386-2.704 2.432-3.76a10.995 10.995 0 0 1 3.119-2.197c-12.391-3.872-45.546-12.723-89.69-12.723-44.137 0-76.07 8.849-87.93 12.721a10.71 10.71 0 0 1 3.108 2.215c1.045 1.056 1.85 2.31 2.416 3.76.576 1.44.864 3.003.864 4.688 0 1.696-.288 3.27-.864 4.72-.566 1.45-1.37 2.704-2.416 3.76-1.035 1.056-2.283 1.888-3.744 2.496-1.462.597-3.083.896-4.864.896-1.782 0-3.403-.299-4.864-.896-1.462-.608-2.715-1.44-3.76-2.496-1.046-1.056-1.856-2.31-2.432-3.76-.566-1.45-.848-3.024-.848-4.72 0-1.696.282-3.264.848-4.704.576-1.45 1.386-2.704 2.432-3.76 1.045-1.056 2.298-1.883 3.76-2.48 1.461-.608 3.082-.912 4.864-.912 1.781 0 3.402.304 4.864.912l.147.061ZM41.136 91.82c.267 0 .49.096.672.288l1.904 2.032a9.046 9.046 0 0 1-3.504 2.72c-1.387.619-3.04.928-4.96.928-1.739 0-3.301-.293-4.688-.88-1.387-.597-2.565-1.424-3.536-2.48-.97-1.056-1.717-2.31-2.24-3.76-.523-1.45-.784-3.035-.784-4.752 0-1.152.123-2.245.368-3.28a11.781 11.781 0 0 1 1.104-2.88 11.252 11.252 0 0 1 1.728-2.368 10.45 10.45 0 0 1 2.304-1.792 10.68 10.68 0 0 1 2.784-1.136c1.013-.267 2.09-.4 3.232-.4.853 0 1.659.075 2.416.224.768.15 1.483.357 2.144.624s1.27.592 1.824.976a9.703 9.703 0 0 1 1.52 1.232l-1.616 2.208a1.506 1.506 0 0 1-.368.368c-.15.107-.352.16-.608.16s-.517-.09-.784-.272a13.186 13.186 0 0 0-.96-.608c-.373-.224-.848-.427-1.424-.608-.565-.181-1.285-.272-2.16-.272-.97 0-1.861.176-2.672.528-.81.352-1.51.864-2.096 1.536-.576.661-1.024 1.477-1.344 2.448-.32.97-.48 2.075-.48 3.312 0 1.248.17 2.363.512 3.344.352.97.827 1.792 1.424 2.464a6.185 6.185 0 0 0 2.112 1.536 6.61 6.61 0 0 0 2.592.512c.544 0 1.035-.027 1.472-.08a5.969 5.969 0 0 0 1.232-.272 5.174 5.174 0 0 0 1.072-.496 6.4 6.4 0 0 0 1.024-.768c.117-.096.24-.176.368-.24a.917.917 0 0 1 .416-.096Zm22.306-5.904c0-1.216-.16-2.304-.48-3.264-.32-.97-.784-1.792-1.392-2.464a5.753 5.753 0 0 0-2.192-1.552c-.854-.363-1.824-.544-2.912-.544-1.088 0-2.064.181-2.928.544a5.89 5.89 0 0 0-2.208 1.552c-.598.672-1.056 1.493-1.376 2.464-.32.96-.48 2.048-.48 3.264 0 1.227.16 2.325.48 3.296.32.96.778 1.776 1.376 2.448a6.138 6.138 0 0 0 2.208 1.552c.864.352 1.84.528 2.928.528 1.088 0 2.058-.176 2.912-.528a5.99 5.99 0 0 0 2.192-1.552c.608-.672 1.072-1.488 1.392-2.448.32-.97.48-2.07.48-3.296Zm28.305 11.616V74.315h-4.24v13.28c0 .341.01.704.032 1.088.022.373.054.763.096 1.168L75.987 75.067a3.272 3.272 0 0 0-.352-.384 1.322 1.322 0 0 0-.336-.224.97.97 0 0 0-.4-.112 3.451 3.451 0 0 0-.512-.032H71.86v23.216h4.24V84.107c0-.31-.01-.645-.032-1.008-.01-.363-.032-.73-.064-1.104l11.568 14.72c.246.299.496.512.752.64.256.117.57.176.944.176h2.48Zm17.438-18.768c-.149.245-.304.427-.464.544-.149.107-.346.16-.592.16-.234 0-.49-.08-.768-.24-.266-.17-.581-.352-.944-.544a8.548 8.548 0 0 0-1.248-.528c-.469-.17-1.018-.256-1.648-.256-1.109 0-1.941.25-2.496.752-.554.49-.832 1.136-.832 1.936 0 .512.15.939.448 1.28.31.33.71.619 1.2.864.502.245 1.067.464 1.696.656.63.192 1.275.405 1.936.64.662.224 1.307.49 1.936.8.63.31 1.19.699 1.68 1.168.502.47.902 1.045 1.2 1.728.31.672.464 1.493.464 2.464a7.885 7.885 0 0 1-.56 2.976 7.021 7.021 0 0 1-1.584 2.416c-.693.683-1.552 1.221-2.576 1.616-1.013.395-2.165.592-3.456.592-.736 0-1.472-.075-2.208-.224-.725-.15-1.43-.357-2.112-.624a11.776 11.776 0 0 1-1.904-.96 8.4 8.4 0 0 1-1.568-1.248l1.408-2.272c.118-.17.272-.31.464-.416.192-.117.395-.176.608-.176.288 0 .592.107.912.32.32.213.688.448 1.104.704.416.256.896.49 1.44.704.555.213 1.216.32 1.984.32 1.12 0 1.984-.256 2.592-.768.619-.512.928-1.275.928-2.288 0-.587-.154-1.061-.464-1.424-.298-.363-.693-.667-1.184-.912a9.026 9.026 0 0 0-1.68-.624 64.9 64.9 0 0 1-1.936-.592 15.89 15.89 0 0 1-1.936-.768 5.988 5.988 0 0 1-1.68-1.184c-.49-.49-.89-1.099-1.2-1.824-.298-.725-.448-1.627-.448-2.704a6.413 6.413 0 0 1 2.016-4.672c.662-.63 1.472-1.136 2.432-1.52.971-.384 2.08-.576 3.328-.576 1.398 0 2.688.219 3.872.656 1.195.427 2.203 1.024 3.024 1.792l-1.184 2.256Zm14.697-.576h6.784v-3.872h-18.384v3.872h6.784v19.344h4.816V78.187Zm14.497-.112v5.968h7.744v3.632h-7.744v6.096h9.952v3.76h-14.784V74.315h14.784v3.76h-9.952Zm27.319 19.456v-3.904h-8.976V74.315h-4.8v23.216h13.776Zm16.719-3.904v3.904h-13.776V74.315h4.799v19.312h8.977Zm12.686-12.016 2.512 7.104h-6.896l2.496-7.072c.15-.373.304-.81.464-1.312.171-.512.331-1.067.48-1.664.15.587.304 1.13.464 1.632.171.501.331.939.48 1.312Zm6.848 15.92h3.728l-9.056-23.216h-4.912l-9.072 23.216h3.76c.406 0 .742-.107 1.008-.32.267-.224.454-.47.56-.736l1.568-4.432h9.248l1.568 4.432c.128.31.32.565.576.768.267.192.608.288 1.024.288Zm20.028-19.344h-6.784v19.344h-4.816V78.187h-6.784v-3.872h18.384v3.872Zm2.88 19.344h4.832V74.315h-4.832v23.216Zm27.208-11.616c0-1.216-.16-2.304-.48-3.264-.32-.97-.784-1.792-1.392-2.464a5.757 5.757 0 0 0-2.192-1.552c-.854-.363-1.824-.544-2.912-.544-1.088 0-2.064.181-2.928.544-.864.352-1.6.87-2.208 1.552-.598.672-1.056 1.493-1.376 2.464-.32.96-.48 2.048-.48 3.264 0 1.227.16 2.325.48 3.296.32.96.778 1.776 1.376 2.448a6.14 6.14 0 0 0 2.208 1.552c.864.352 1.84.528 2.928.528 1.088 0 2.058-.176 2.912-.528a5.995 5.995 0 0 0 2.192-1.552c.608-.672 1.072-1.488 1.392-2.448.32-.97.48-2.07.48-3.296Zm28.305 11.616V74.315h-4.24v13.28c0 .341.011.704.032 1.088.022.373.054.763.096 1.168l-11.648-14.784a3.238 3.238 0 0 0-.352-.384 1.298 1.298 0 0 0-.336-.224.965.965 0 0 0-.4-.112 3.44 3.44 0 0 0-.512-.032h-2.528v23.216h4.24V84.107c0-.31-.01-.645-.032-1.008-.01-.363-.032-.73-.064-1.104l11.568 14.72c.246.299.496.512.752.64.256.117.571.176.944.176h2.48ZM136.996 44.386a.999.999 0 0 1-.648.77l-3.188 1.138a.1.1 0 0 0 0 .188l3.188 1.139a1 1 0 0 1 .648.77l.801 4.577c.02.11.178.11.197 0l.802-4.578a1 1 0 0 1 .648-.77l3.188-1.138a.1.1 0 0 0 0-.188l-3.188-1.139a1 1 0 0 1-.648-.77l-.801-4.576c-.02-.11-.178-.111-.198 0l-.801 4.577Z" clip-rule="evenodd"/></g><defs><radialGradient id="b" cx="0" cy="0" r="1" gradientTransform="rotate(89.931 56.159 95.804) scale(86.969 266.109)" gradientUnits="userSpaceOnUse"><stop stop-color="#fff"/><stop offset=".468" stop-color="#FF9"/><stop offset="1" stop-color="#FF9901"/></radialGradient></defs></svg>
