<svg xmlns="http://www.w3.org/2000/svg" width="332" height="134" fill="none"><style>@media(prefers-color-scheme:dark){circle,path{fill:#fff}}</style><path fill="url(#paint0_radial_1062_47)" d="M164.295 44.412C92.703 44.412 5.769 70.26 5.769 70.26s62.217-12.18 158.526-12.18c96.309 0 161.936 12.18 161.936 12.18s-90.343-25.848-161.936-25.848Z"/><path fill="#000" fill-rule="nonzero" d="M22.313 94.306c.346 0 .635.13.87.39l2.463 2.75a11.787 11.787 0 0 1-4.533 3.683c-1.794.838-3.934 1.257-6.418 1.257-2.25 0-4.271-.397-6.066-1.192-1.794-.808-3.319-1.928-4.575-3.357-1.256-1.43-2.222-3.127-2.898-5.091C.479 90.782.14 88.637.14 86.312c0-1.56.16-3.04.477-4.44a16.408 16.408 0 0 1 1.428-3.9 15.22 15.22 0 0 1 2.236-3.206 13.617 13.617 0 0 1 2.98-2.426 13.479 13.479 0 0 1 3.603-1.538 15.692 15.692 0 0 1 4.182-.542c1.104 0 2.146.101 3.126.304.994.202 1.918.483 2.774.844.856.361 1.643.802 2.36 1.322a12.682 12.682 0 0 1 1.967 1.668l-2.091 2.99a1.998 1.998 0 0 1-.476.497c-.193.145-.456.217-.787.217s-.67-.123-1.014-.368c-.331-.246-.746-.52-1.242-.823-.484-.304-1.098-.578-1.843-.823-.731-.246-1.663-.369-2.795-.369-1.256 0-2.408.239-3.457.715a7.582 7.582 0 0 0-2.712 2.08c-.745.895-1.325 2-1.739 3.314-.414 1.314-.621 2.809-.621 4.484 0 1.69.22 3.199.662 4.528.456 1.314 1.07 2.426 1.843 3.336a8.03 8.03 0 0 0 2.733 2.08 8.226 8.226 0 0 0 3.353.692c.704 0 1.34-.036 1.905-.108a7.434 7.434 0 0 0 1.594-.368c.497-.173.96-.397 1.387-.672a8.332 8.332 0 0 0 1.325-1.04c.152-.13.31-.238.476-.324.166-.087.345-.13.538-.13ZM57.53 86.312c0 2.296-.372 4.427-1.118 6.39-.731 1.965-1.773 3.662-3.126 5.091-1.339 1.43-2.953 2.557-4.844 3.38-1.89.808-3.989 1.213-6.294 1.213-2.304 0-4.402-.405-6.293-1.213-1.89-.823-3.512-1.95-4.865-3.38-1.353-1.43-2.401-3.126-3.147-5.09-.731-1.964-1.097-4.095-1.097-6.39 0-2.297.366-4.42 1.097-6.37.745-1.964 1.794-3.66 3.147-5.09 1.353-1.43 2.974-2.55 4.865-3.358 1.89-.823 3.989-1.235 6.293-1.235 2.305 0 4.403.412 6.294 1.235 1.89.809 3.505 1.935 4.844 3.38 1.353 1.43 2.395 3.126 3.126 5.09.746 1.95 1.118 4.065 1.118 6.347Zm-6.355 0c0-1.646-.207-3.12-.621-4.419-.415-1.314-1.015-2.426-1.802-3.336a7.455 7.455 0 0 0-2.836-2.101c-1.104-.491-2.36-.737-3.768-.737-1.407 0-2.67.246-3.788.737a7.632 7.632 0 0 0-2.857 2.101c-.773.91-1.366 2.022-1.78 3.336-.414 1.3-.621 2.773-.621 4.42 0 1.66.207 3.147.62 4.462.415 1.3 1.008 2.404 1.781 3.314a7.956 7.956 0 0 0 2.857 2.101c1.118.477 2.38.715 3.788.715s2.664-.238 3.768-.715a7.764 7.764 0 0 0 2.837-2.101c.786-.91 1.386-2.015 1.8-3.314.415-1.315.622-2.802.622-4.463ZM87.799 70.607v31.432h-3.21c-.482 0-.89-.079-1.22-.238-.332-.173-.656-.462-.974-.867l-14.967-19.93c.041.506.069 1.005.083 1.496.027.49.041.945.041 1.364v18.175h-5.486V70.607h3.27c.263 0 .484.014.663.043.194.015.366.065.518.152.152.072.297.173.435.303s.29.303.455.52l15.071 20.016a34.755 34.755 0 0 1-.124-1.581c-.028-.52-.041-1.011-.041-1.473v-17.98h5.486ZM110.362 76.63c-.194.331-.394.577-.601.736-.193.144-.448.216-.766.216-.303 0-.635-.108-.993-.325a17.186 17.186 0 0 0-1.222-.736 10.831 10.831 0 0 0-1.615-.715c-.607-.231-1.318-.347-2.132-.347-1.435 0-2.512.34-3.23 1.018-.717.665-1.076 1.538-1.076 2.622 0 .693.193 1.27.58 1.733.4.447.917.837 1.552 1.17.649.332 1.38.628 2.195.888.814.26 1.649.548 2.505.866.855.303 1.69.664 2.505 1.083a8.619 8.619 0 0 1 2.173 1.582c.649.635 1.167 1.415 1.553 2.34.4.909.6 2.02.6 3.335 0 1.43-.241 2.773-.724 4.03a9.583 9.583 0 0 1-2.05 3.27c-.897.925-2.008 1.654-3.333 2.188-1.311.535-2.801.802-4.471.802-.953 0-1.905-.101-2.857-.303a16.337 16.337 0 0 1-2.733-.845c-.87-.361-1.69-.795-2.463-1.3a10.972 10.972 0 0 1-2.03-1.69l1.822-3.076c.152-.23.352-.419.6-.563.25-.159.511-.238.788-.238.372 0 .765.144 1.18.433.413.289.89.606 1.428.953.538.347 1.16.664 1.863.953.718.289 1.574.434 2.567.434 1.449 0 2.567-.347 3.354-1.04.8-.694 1.201-1.726 1.201-3.098 0-.794-.2-1.437-.601-1.928-.386-.491-.897-.903-1.532-1.235a11.366 11.366 0 0 0-2.173-.845 79.63 79.63 0 0 1-2.505-.801 20.017 20.017 0 0 1-2.505-1.04 7.759 7.759 0 0 1-2.174-1.603c-.635-.664-1.152-1.487-1.553-2.47-.386-.981-.58-2.202-.58-3.66 0-1.17.221-2.304.663-3.402a8.647 8.647 0 0 1 1.946-2.924c.856-.852 1.905-1.538 3.147-2.058 1.256-.52 2.691-.78 4.306-.78 1.808 0 3.478.296 5.01.888 1.546.578 2.85 1.387 3.913 2.427l-1.532 3.054ZM138.156 75.85h-8.778v26.189h-6.231v-26.19h-8.778v-5.242h23.787v5.242ZM148.135 75.698v8.08h10.02v4.917h-10.02v8.254h12.877v5.09h-19.129V70.607h19.129v5.09h-12.877ZM183.483 96.754v5.285h-17.825V70.607h6.211v26.147h11.614ZM205.115 96.754v5.285H187.29V70.607h6.211v26.147h11.614ZM224.78 90.103l-3.25-9.618c-.193-.505-.4-1.098-.621-1.776a39.875 39.875 0 0 1-.6-2.21c-.194.809-.401 1.56-.621 2.253-.208.679-.408 1.27-.601 1.776l-3.229 9.575h8.922Zm10.434 11.936h-4.823c-.539 0-.98-.13-1.325-.39a2.53 2.53 0 0 1-.746-1.04l-2.028-6h-11.966l-2.029 6c-.138.362-.38.694-.725.997-.345.289-.78.433-1.304.433h-4.865l11.738-31.432h6.356l11.717 31.432ZM256.304 75.85h-8.778v26.189h-6.231v-26.19h-8.778v-5.242h23.787v5.242ZM266.283 102.039h-6.252V70.607h6.252v31.432ZM301.59 86.312c0 2.296-.373 4.427-1.118 6.39-.731 1.965-1.773 3.662-3.126 5.091-1.339 1.43-2.953 2.557-4.844 3.38-1.891.808-3.989 1.213-6.294 1.213-2.305 0-4.402-.405-6.293-1.213-1.891-.823-3.513-1.95-4.865-3.38-1.353-1.43-2.402-3.126-3.147-5.09-.731-1.964-1.097-4.095-1.097-6.39 0-2.297.366-4.42 1.097-6.37.745-1.964 1.794-3.66 3.147-5.09 1.352-1.43 2.974-2.55 4.865-3.358 1.891-.823 3.988-1.235 6.293-1.235s4.403.412 6.294 1.235c1.891.809 3.505 1.935 4.844 3.38 1.353 1.43 2.395 3.126 3.126 5.09.745 1.95 1.118 4.065 1.118 6.347Zm-6.356 0c0-1.646-.207-3.12-.621-4.419-.414-1.314-1.014-2.426-1.801-3.336a7.454 7.454 0 0 0-2.836-2.101c-1.104-.491-2.36-.737-3.768-.737-1.407 0-2.67.246-3.788.737a7.634 7.634 0 0 0-2.857 2.101c-.773.91-1.366 2.022-1.781 3.336-.414 1.3-.621 2.773-.621 4.42 0 1.66.207 3.147.621 4.462.415 1.3 1.008 2.404 1.781 3.314a7.958 7.958 0 0 0 2.857 2.101c1.118.477 2.381.715 3.788.715 1.408 0 2.664-.238 3.768-.715a7.764 7.764 0 0 0 2.836-2.101c.787-.91 1.387-2.015 1.801-3.314.414-1.315.621-2.802.621-4.463ZM331.859 70.607v31.432h-3.209c-.483 0-.89-.079-1.222-.238-.331-.173-.655-.462-.973-.867l-14.967-19.93c.041.506.069 1.005.082 1.496.028.49.042.945.042 1.364v18.175h-5.486V70.607h3.271c.262 0 .483.014.662.043.193.015.366.065.518.152.152.072.296.173.435.303.138.13.289.303.455.52l15.071 20.016a35.63 35.63 0 0 1-.124-1.581c-.028-.52-.041-1.011-.041-1.473v-17.98h5.486ZM62.384 127.55c-.342 0-.513-.188-.513-.564V113.41c0-.376.171-.564.513-.564h4.307c2.324 0 3.893.393 4.706 1.179.814.779 1.22 1.852 1.22 3.22 0 1.367-.406 2.443-1.22 3.23-.813.779-2.382 1.168-4.706 1.168h-2.85v5.343c0 .376-.172.564-.513.564h-.944Zm1.456-7.588h2.882c1.504 0 2.529-.212 3.076-.636.547-.431.82-1.124.82-2.081 0-.957-.273-1.648-.82-2.072-.547-.43-1.573-.646-3.076-.646H63.84v5.435Zm32.431 7.588c-.341 0-.512-.188-.512-.564V113.41c0-.376.17-.564.512-.564h4.953c1.976 0 3.404.369 4.286 1.107.889.738 1.333 1.712 1.333 2.922 0 1.067-.359 1.962-1.077 2.687-.711.725-1.726 1.142-3.045 1.251v.02c.697.52 1.159.916 1.384 1.19.226.266.479.629.759 1.087l2.317 3.763c.281.451.219.677-.184.677h-1.169c-.321 0-.561-.134-.718-.4l-2.133-3.661c-.307-.526-.748-1.042-1.322-1.548-.575-.506-1.289-.759-2.144-.759h-1.784v5.804c0 .376-.17.564-.512.564h-.944Zm1.456-8.05h2.964c1.333 0 2.358-.174 3.076-.523.718-.355 1.077-1.097 1.077-2.225 0-.861-.329-1.445-.985-1.753-.656-.315-1.548-.472-2.676-.472h-3.456v4.973Zm32.001.698c0-2.393.588-4.266 1.763-5.619 1.183-1.361 2.885-2.041 5.107-2.041 2.222 0 3.92.68 5.096 2.041 1.183 1.353 1.774 3.226 1.774 5.619 0 2.392-.591 4.269-1.774 5.629-1.176 1.354-2.874 2.03-5.096 2.03s-3.924-.676-5.107-2.03c-1.175-1.36-1.763-3.237-1.763-5.629Zm2.102 0c0 1.914.393 3.404 1.179 4.47.786 1.06 1.982 1.59 3.589 1.59 1.606 0 2.803-.53 3.589-1.59.786-1.066 1.179-2.556 1.179-4.47 0-1.914-.393-3.401-1.179-4.461-.786-1.066-1.983-1.599-3.589-1.599-1.607 0-2.803.533-3.589 1.599-.786 1.06-1.179 2.547-1.179 4.461Zm33.928 7.054c-.315-.171-.41-.393-.287-.666l.338-.728c.151-.328.4-.376.749-.144.553.363 1.107.544 1.661.544.663 0 1.094-.222 1.292-.667.198-.451.297-1.09.297-1.917V113.41c0-.376.171-.564.513-.564h.943c.342 0 .513.188.513.564v10.028c0 1.353-.212 2.43-.636 3.23-.424.793-1.415 1.189-2.973 1.189a5.014 5.014 0 0 1-2.41-.605Zm30.308.298c-.341 0-.512-.188-.512-.564V113.41c0-.376.171-.564.512-.564h8.973c.376 0 .564.153.564.461v.759c0 .307-.188.461-.564.461h-7.517v4.553h6.901c.376 0 .564.154.564.461v.759c0 .308-.188.462-.564.462h-6.901v5.106h7.824c.376 0 .564.154.564.461v.759c0 .308-.188.462-.564.462h-9.28Zm32.185-7.352c0-2.393.592-4.266 1.774-5.619 1.19-1.361 2.895-2.041 5.117-2.041 1.299 0 2.372.222 3.22.666.847.438 1.456 1.04 1.825 1.805.191.397.161.67-.092.82l-.81.472c-.274.157-.517.028-.728-.389-.226-.431-.595-.834-1.108-1.21-.513-.376-1.247-.564-2.204-.564-1.709 0-2.954.533-3.733 1.599-.772 1.06-1.159 2.547-1.159 4.461 0 1.914.387 3.404 1.159 4.47.779 1.06 2.024 1.59 3.733 1.59.984 0 1.77-.226 2.358-.677.595-.451 1.025-.923 1.292-1.415.212-.397.458-.516.738-.359l.851.482c.246.144.267.417.062.82-.403.786-1.06 1.443-1.969 1.969-.909.52-2.054.779-3.435.779-2.222 0-3.927-.676-5.117-2.03-1.182-1.36-1.774-3.237-1.774-5.629Zm34.841-5.589c-.376 0-.564-.154-.564-.461v-.841c0-.308.188-.461.564-.461h10.849c.376 0 .564.153.564.461v.841c0 .307-.188.461-.564.461h-4.44v12.377c0 .376-.171.564-.513.564h-.943c-.342 0-.513-.188-.513-.564v-12.377h-4.44ZM175.457 19.919a1 1 0 0 0 .694-.753l2.367-11.25c.023-.107.174-.106.196 0l2.367 11.249c.076.36.342.65.694.754l9.457 2.81a.1.1 0 0 1 0 .19l-9.457 2.81a1 1 0 0 0-.694.753l-2.367 11.25c-.022.107-.173.107-.196 0l-2.367-11.25a1 1 0 0 0-.694-.753L166 22.92c-.095-.027-.095-.163 0-.19l9.457-2.81ZM146.771 25.553a.999.999 0 0 0 .642-.77l1.653-9.683c.019-.11.178-.11.197.002l1.652 9.68a1 1 0 0 0 .642.771l6.593 2.415a.1.1 0 0 1 0 .188l-6.593 2.414a.999.999 0 0 0-.642.77l-1.652 9.683c-.019.111-.178.111-.197 0l-1.653-9.682a.999.999 0 0 0-.642-.77l-6.592-2.415a.1.1 0 0 1 0-.188l6.592-2.415ZM203.697 33.108c.334-.125.577-.42.636-.772l1.1-6.577c.018-.112.179-.111.197 0l1.1 6.577c.059.352.302.647.636.772l4.384 1.638a.1.1 0 0 1 0 .187l-4.384 1.639c-.334.125-.577.419-.636.771l-1.1 6.578c-.019.111-.179.111-.197 0l-1.1-6.578a1.001 1.001 0 0 0-.636-.771l-4.384-1.639a.1.1 0 0 1 0-.187l4.384-1.638ZM216.526 25.456a1 1 0 0 0 .636-.771l.74-4.427c.019-.111.179-.111.198 0l.74 4.427a1 1 0 0 0 .636.771l2.945 1.101a.1.1 0 0 1 0 .188l-2.945 1.1a1 1 0 0 0-.636.772l-.74 4.427c-.019.111-.179.111-.198 0l-.74-4.427a1 1 0 0 0-.636-.772l-2.946-1.1a.1.1 0 0 1 0-.188l2.946-1.1Z"/><circle cx="136.437" cy="37.706" r="2.073" fill="#000" fill-rule="nonzero"/><circle cx="225.685" cy="41.463" r="1.684" fill="#000" fill-rule="nonzero"/><circle cx="197.378" cy="18.458" r="1.684" fill="#000" fill-rule="nonzero"/><circle cx="109.317" cy="29.746" r="1.684" fill="#000" fill-rule="nonzero"/><circle cx="189.871" cy="38.244" r="1.684" fill="#000" fill-rule="nonzero"/><circle cx="156.722" cy="12.838" r="1.684" fill="#000" fill-rule="nonzero"/><path fill="#000" fill-rule="nonzero" d="M121.262 33.778c.334-.125.577-.42.636-.772l1.1-6.577c.018-.112.178-.111.197 0l1.1 6.577c.059.352.302.647.636.772l4.384 1.638a.1.1 0 0 1 0 .187l-4.384 1.639c-.334.125-.577.419-.636.771l-1.1 6.578c-.019.111-.179.111-.197 0l-1.1-6.578a1.001 1.001 0 0 0-.636-.771l-4.384-1.639a.1.1 0 0 1 0-.187l4.384-1.638Z"/><defs><radialGradient id="paint0_radial_1062_47" cx="0" cy="0" r="1" gradientTransform="matrix(0 98.7105 -133.926 0 166 3.716)" gradientUnits="userSpaceOnUse"><stop/><stop offset="1"/></radialGradient></defs></svg>
