<svg width="332" height="134" viewBox="0 0 332 134" fill="none" xmlns="http://www.w3.org/2000/svg">
<path d="M164.295 44.412C92.7029 44.412 5.76904 70.2603 5.76904 70.2603C5.76904 70.2603 67.9864 58.0793 164.295 58.0793C260.604 58.0793 326.231 70.2603 326.231 70.2603C326.231 70.2603 235.888 44.412 164.295 44.412Z" fill="url(#paint0_radial_1062_47)"/>
<path d="M22.3134 94.3057C22.6585 94.3057 22.9483 94.4356 23.1829 94.6956L25.6465 97.4467C24.432 99.0642 22.9207 100.292 21.1127 101.129C19.3185 101.967 17.1793 102.386 14.695 102.386C12.4454 102.386 10.4235 101.989 8.62927 101.194C6.83508 100.386 5.31001 99.2664 4.05408 97.8367C2.79814 96.4069 1.83204 94.71 1.15577 92.746C0.479494 90.7819 0.141357 88.6373 0.141357 86.3122C0.141357 84.7525 0.300075 83.2722 0.617509 81.8714C0.948744 80.4561 1.4249 79.1564 2.04596 77.9721C2.66703 76.7879 3.41231 75.7192 4.2818 74.7661C5.1651 73.8129 6.1588 73.0042 7.26292 72.3399C8.36704 71.6611 9.56777 71.1484 10.8651 70.8018C12.1763 70.4408 13.5702 70.2603 15.047 70.2603C16.1511 70.2603 17.1931 70.3614 18.173 70.5636C19.1667 70.7657 20.0914 71.0474 20.9471 71.4084C21.8028 71.7694 22.5895 72.2099 23.3071 72.7298C24.0386 73.2353 24.6942 73.7913 25.2739 74.3978L23.1829 77.3873C23.0587 77.575 22.9 77.7411 22.7068 77.8855C22.5136 78.0299 22.2513 78.1021 21.9201 78.1021C21.5889 78.1021 21.2507 77.9794 20.9057 77.7339C20.5745 77.4883 20.1604 77.214 19.6636 76.9107C19.1805 76.6074 18.5663 76.333 17.8211 76.0875C17.0896 75.842 16.158 75.7192 15.0263 75.7192C13.7703 75.7192 12.6179 75.9575 11.569 76.4341C10.5201 76.9107 9.61608 77.6039 8.85699 78.5137C8.11171 79.4091 7.53205 80.5139 7.11801 81.8281C6.70396 83.1423 6.49694 84.637 6.49694 86.3122C6.49694 88.0019 6.71776 89.511 7.15941 90.8397C7.61486 92.1539 8.22903 93.2659 9.00191 94.1757C9.78859 95.0855 10.6995 95.7787 11.7346 96.2553C12.7835 96.7174 13.9014 96.9485 15.0884 96.9485C15.7922 96.9485 16.4271 96.9124 16.993 96.8402C17.5726 96.768 18.104 96.6452 18.587 96.4719C19.0839 96.2986 19.5462 96.0748 19.9741 95.8004C20.4157 95.526 20.8574 95.1794 21.299 94.7606C21.4508 94.6306 21.6096 94.5223 21.7752 94.4356C21.9408 94.349 22.1202 94.3057 22.3134 94.3057Z" fill="black"/>
<path d="M57.5302 86.3122C57.5302 88.6084 57.1576 90.7386 56.4123 92.7026C55.6808 94.6667 54.6388 96.3636 53.2862 97.7933C51.9475 99.2231 50.3327 100.35 48.4419 101.173C46.5511 101.981 44.4533 102.386 42.1484 102.386C39.8436 102.386 37.7458 101.981 35.855 101.173C33.9642 100.35 32.3425 99.2231 30.9899 97.7933C29.6374 96.3636 28.5885 94.6667 27.8432 92.7026C27.1117 90.7386 26.746 88.6084 26.746 86.3122C26.746 84.016 27.1117 81.8931 27.8432 79.9434C28.5885 77.9794 29.6374 76.2825 30.9899 74.8527C32.3425 73.423 33.9642 72.3038 35.855 71.495C37.7458 70.6719 39.8436 70.2603 42.1484 70.2603C44.4533 70.2603 46.5511 70.6719 48.4419 71.495C50.3327 72.3038 51.9475 73.4302 53.2862 74.8744C54.6388 76.3041 55.6808 78.001 56.4123 79.9651C57.1576 81.9147 57.5302 84.0304 57.5302 86.3122ZM51.1746 86.3122C51.1746 84.6659 50.9676 83.1928 50.5535 81.8931C50.1395 80.5789 49.5391 79.4669 48.7525 78.557C47.9796 77.6328 47.0342 76.9323 45.9162 76.4558C44.8121 75.9647 43.5562 75.7192 42.1484 75.7192C40.7407 75.7192 39.4779 75.9647 38.3599 76.4558C37.242 76.9323 36.2897 77.6328 35.503 78.557C34.7301 79.4669 34.1367 80.5789 33.7226 81.8931C33.3086 83.1928 33.1016 84.6659 33.1016 86.3122C33.1016 87.973 33.3086 89.4605 33.7226 90.7747C34.1367 92.0744 34.7301 93.1792 35.503 94.089C36.2897 94.9989 37.242 95.6993 38.3599 96.1903C39.4779 96.6669 40.7407 96.9052 42.1484 96.9052C43.5562 96.9052 44.8121 96.6669 45.9162 96.1903C47.0342 95.6993 47.9796 94.9989 48.7525 94.089C49.5391 93.1792 50.1395 92.0744 50.5535 90.7747C50.9676 89.4605 51.1746 87.973 51.1746 86.3122Z" fill="black"/>
<path d="M87.7988 70.6069V102.039H84.5899C84.1069 102.039 83.6998 101.96 83.3685 101.801C83.0373 101.628 82.7129 101.339 82.3955 100.934L67.4278 81.0049C67.4692 81.5103 67.4968 82.0086 67.5106 82.4996C67.5382 82.9906 67.552 83.4455 67.552 83.8643V102.039H62.0659V70.6069H65.3369C65.5991 70.6069 65.8199 70.6213 65.9993 70.6502C66.1926 70.6647 66.3651 70.7152 66.5169 70.8018C66.6687 70.8741 66.8136 70.9751 66.9516 71.1051C67.0897 71.2351 67.2415 71.4084 67.4071 71.625L82.4783 91.6412C82.4231 91.0924 82.3817 90.5653 82.3541 90.0598C82.3265 89.5399 82.3127 89.0489 82.3127 88.5868V70.6069H87.7988Z" fill="black"/>
<path d="M110.362 76.6291C110.168 76.9612 109.968 77.2067 109.761 77.3656C109.568 77.51 109.313 77.5822 108.995 77.5822C108.692 77.5822 108.36 77.4739 108.002 77.2573C107.657 77.0262 107.249 76.7807 106.78 76.5208C106.311 76.2608 105.773 76.0225 105.165 75.8059C104.558 75.5748 103.847 75.4593 103.033 75.4593C101.598 75.4593 100.521 75.7987 99.8035 76.4774C99.0858 77.1417 98.727 78.0155 98.727 79.0986C98.727 79.7918 98.9202 80.3695 99.3066 80.8316C99.7069 81.2793 100.224 81.6692 100.859 82.0014C101.508 82.3335 102.239 82.6296 103.054 82.8895C103.868 83.1495 104.703 83.4383 105.559 83.756C106.414 84.0593 107.249 84.4203 108.064 84.8392C108.878 85.258 109.603 85.7851 110.237 86.4205C110.886 87.056 111.404 87.8358 111.79 88.7601C112.19 89.6699 112.39 90.7819 112.39 92.0961C112.39 93.5258 112.149 94.8689 111.666 96.1253C111.197 97.3673 110.513 98.4577 109.616 99.3964C108.719 100.321 107.608 101.05 106.283 101.584C104.972 102.119 103.482 102.386 101.812 102.386C100.859 102.386 99.907 102.285 98.9547 102.083C98.0162 101.88 97.1053 101.599 96.222 101.238C95.3525 100.877 94.5313 100.443 93.7585 99.9379C92.9856 99.4325 92.3093 98.8692 91.7296 98.2482L93.5514 95.1722C93.7032 94.9411 93.9034 94.7534 94.1518 94.6089C94.4002 94.4501 94.6624 94.3707 94.9385 94.3707C95.3111 94.3707 95.7044 94.5151 96.1185 94.8039C96.5325 95.0927 97.0087 95.4105 97.547 95.7571C98.0852 96.1037 98.7063 96.4214 99.4102 96.7102C100.128 96.999 100.984 97.1435 101.977 97.1435C103.426 97.1435 104.544 96.7969 105.331 96.1037C106.131 95.4105 106.532 94.3779 106.532 93.0059C106.532 92.2116 106.332 91.569 105.931 91.078C105.545 90.5869 105.034 90.1754 104.399 89.8432C103.765 89.511 103.04 89.2294 102.226 88.9984C101.411 88.7528 100.576 88.4857 99.7207 88.1968C98.865 87.908 98.03 87.5614 97.2157 87.157C96.4014 86.7527 95.6768 86.2183 95.042 85.554C94.4071 84.8897 93.8896 84.0665 93.4893 83.0845C93.1029 82.1025 92.9097 80.8821 92.9097 79.4235C92.9097 78.2538 93.1305 77.1201 93.5721 76.0225C94.0138 74.9249 94.6625 73.9501 95.5181 73.0981C96.3738 72.246 97.4227 71.56 98.6649 71.0401C99.9208 70.5202 101.356 70.2603 102.971 70.2603C104.779 70.2603 106.449 70.5563 107.981 71.1484C109.527 71.7261 110.831 72.5349 111.894 73.5747L110.362 76.6291Z" fill="black"/>
<path d="M138.156 75.8492H129.378V102.039H123.147V75.8492H114.369V70.6069H138.156V75.8492Z" fill="black"/>
<path d="M148.135 75.6976V83.7777H158.155V88.6951H148.135V96.9485H161.012V102.039H141.883V70.6069H161.012V75.6976H148.135Z" fill="black"/>
<path d="M183.483 96.7535V102.039H165.658V70.6069H171.869V96.7535H183.483Z" fill="black"/>
<path d="M205.115 96.7535V102.039H187.29V70.6069H193.501V96.7535H205.115Z" fill="black"/>
<path d="M224.78 90.1031L221.53 80.485C221.337 79.9795 221.13 79.3874 220.909 78.7087C220.702 78.0299 220.502 77.2934 220.309 76.4991C220.115 77.3078 219.908 78.0588 219.688 78.752C219.48 79.4307 219.28 80.0229 219.087 80.5283L215.858 90.1031H224.78ZM235.214 102.039H230.391C229.852 102.039 229.411 101.909 229.066 101.649C228.734 101.375 228.486 101.028 228.32 100.609L226.292 94.6089H214.326L212.297 100.609C212.159 100.971 211.917 101.303 211.572 101.606C211.227 101.895 210.792 102.039 210.268 102.039H205.403L217.141 70.6069H223.497L235.214 102.039Z" fill="black"/>
<path d="M256.304 75.8492H247.526V102.039H241.295V75.8492H232.517V70.6069H256.304V75.8492Z" fill="black"/>
<path d="M266.283 102.039H260.031V70.6069H266.283V102.039Z" fill="black"/>
<path d="M301.59 86.3122C301.59 88.6084 301.217 90.7386 300.472 92.7026C299.741 94.6667 298.699 96.3636 297.346 97.7933C296.007 99.2231 294.393 100.35 292.502 101.173C290.611 101.981 288.513 102.386 286.208 102.386C283.903 102.386 281.806 101.981 279.915 101.173C278.024 100.35 276.402 99.2231 275.05 97.7933C273.697 96.3636 272.648 94.6667 271.903 92.7026C271.172 90.7386 270.806 88.6084 270.806 86.3122C270.806 84.016 271.172 81.8931 271.903 79.9434C272.648 77.9794 273.697 76.2825 275.05 74.8527C276.402 73.423 278.024 72.3038 279.915 71.495C281.806 70.6719 283.903 70.2603 286.208 70.2603C288.513 70.2603 290.611 70.6719 292.502 71.495C294.393 72.3038 296.007 73.4302 297.346 74.8744C298.699 76.3041 299.741 78.001 300.472 79.9651C301.217 81.9147 301.59 84.0304 301.59 86.3122ZM295.234 86.3122C295.234 84.6659 295.027 83.1928 294.613 81.8931C294.199 80.5789 293.599 79.4669 292.812 78.557C292.039 77.6328 291.094 76.9323 289.976 76.4558C288.872 75.9647 287.616 75.7192 286.208 75.7192C284.801 75.7192 283.538 75.9647 282.42 76.4558C281.302 76.9323 280.35 77.6328 279.563 78.557C278.79 79.4669 278.197 80.5789 277.782 81.8931C277.368 83.1928 277.161 84.6659 277.161 86.3122C277.161 87.973 277.368 89.4605 277.782 90.7747C278.197 92.0744 278.79 93.1792 279.563 94.089C280.35 94.9989 281.302 95.6993 282.42 96.1903C283.538 96.6669 284.801 96.9052 286.208 96.9052C287.616 96.9052 288.872 96.6669 289.976 96.1903C291.094 95.6993 292.039 94.9989 292.812 94.089C293.599 93.1792 294.199 92.0744 294.613 90.7747C295.027 89.4605 295.234 87.973 295.234 86.3122Z" fill="black"/>
<path d="M331.859 70.6069V102.039H328.65C328.167 102.039 327.76 101.96 327.428 101.801C327.097 101.628 326.773 101.339 326.455 100.934L311.488 81.0049C311.529 81.5103 311.557 82.0086 311.57 82.4996C311.598 82.9906 311.612 83.4455 311.612 83.8643V102.039H306.126V70.6069H309.397C309.659 70.6069 309.88 70.6213 310.059 70.6502C310.252 70.6647 310.425 70.7152 310.577 70.8018C310.729 70.8741 310.873 70.9751 311.012 71.1051C311.15 71.2351 311.301 71.4084 311.467 71.625L326.538 91.6412C326.483 91.0924 326.442 90.5653 326.414 90.0598C326.386 89.5399 326.373 89.0489 326.373 88.5868V70.6069H331.859Z" fill="black"/>
<path d="M62.3842 127.55C62.0424 127.55 61.8715 127.362 61.8715 126.986V113.41C61.8715 113.034 62.0424 112.846 62.3842 112.846H66.6908C69.0151 112.846 70.5839 113.239 71.3974 114.025C72.2109 114.804 72.6176 115.877 72.6176 117.245C72.6176 118.612 72.2109 119.688 71.3974 120.475C70.5839 121.254 69.0151 121.643 66.6908 121.643H63.8403V126.986C63.8403 127.362 63.6694 127.55 63.3276 127.55H62.3842ZM63.8403 119.962H66.7216C68.2255 119.962 69.2509 119.75 69.7978 119.326C70.3447 118.895 70.6181 118.202 70.6181 117.245C70.6181 116.288 70.3447 115.597 69.7978 115.173C69.2509 114.743 68.2255 114.527 66.7216 114.527H63.8403V119.962ZM96.2713 127.55C95.9295 127.55 95.7586 127.362 95.7586 126.986V113.41C95.7586 113.034 95.9295 112.846 96.2713 112.846H101.224C103.2 112.846 104.628 113.215 105.51 113.953C106.399 114.691 106.843 115.665 106.843 116.875C106.843 117.942 106.484 118.837 105.766 119.562C105.055 120.287 104.04 120.704 102.721 120.813V120.833C103.418 121.353 103.88 121.749 104.105 122.023C104.331 122.289 104.584 122.652 104.864 123.11L107.181 126.873C107.462 127.324 107.4 127.55 106.997 127.55H105.828C105.507 127.55 105.267 127.416 105.11 127.15L102.977 123.489C102.67 122.963 102.229 122.447 101.655 121.941C101.08 121.435 100.366 121.182 99.5115 121.182H97.7274V126.986C97.7274 127.362 97.5565 127.55 97.2147 127.55H96.2713ZM97.7274 119.5H100.691C102.024 119.5 103.049 119.326 103.767 118.977C104.485 118.622 104.844 117.88 104.844 116.752C104.844 115.891 104.515 115.307 103.859 114.999C103.203 114.684 102.311 114.527 101.183 114.527H97.7274V119.5ZM129.728 120.198C129.728 117.805 130.316 115.932 131.491 114.579C132.674 113.218 134.376 112.538 136.598 112.538C138.82 112.538 140.518 113.218 141.694 114.579C142.877 115.932 143.468 117.805 143.468 120.198C143.468 122.59 142.877 124.467 141.694 125.827C140.518 127.181 138.82 127.857 136.598 127.857C134.376 127.857 132.674 127.181 131.491 125.827C130.316 124.467 129.728 122.59 129.728 120.198ZM131.83 120.198C131.83 122.112 132.223 123.602 133.009 124.668C133.795 125.728 134.991 126.258 136.598 126.258C138.204 126.258 139.401 125.728 140.187 124.668C140.973 123.602 141.366 122.112 141.366 120.198C141.366 118.284 140.973 116.797 140.187 115.737C139.401 114.671 138.204 114.138 136.598 114.138C134.991 114.138 133.795 114.671 133.009 115.737C132.223 116.797 131.83 118.284 131.83 120.198ZM165.758 127.252C165.443 127.081 165.348 126.859 165.471 126.586L165.809 125.858C165.96 125.53 166.209 125.482 166.558 125.714C167.111 126.077 167.665 126.258 168.219 126.258C168.882 126.258 169.313 126.036 169.511 125.591C169.709 125.14 169.808 124.501 169.808 123.674V113.41C169.808 113.034 169.979 112.846 170.321 112.846H171.264C171.606 112.846 171.777 113.034 171.777 113.41V123.438C171.777 124.791 171.565 125.868 171.141 126.668C170.717 127.461 169.726 127.857 168.168 127.857C167.313 127.857 166.51 127.656 165.758 127.252ZM196.066 127.55C195.725 127.55 195.554 127.362 195.554 126.986V113.41C195.554 113.034 195.725 112.846 196.066 112.846H205.039C205.415 112.846 205.603 112.999 205.603 113.307V114.066C205.603 114.373 205.415 114.527 205.039 114.527H197.522V119.08H204.423C204.799 119.08 204.987 119.234 204.987 119.541V120.3C204.987 120.608 204.799 120.762 204.423 120.762H197.522V125.868H205.346C205.722 125.868 205.91 126.022 205.91 126.329V127.088C205.91 127.396 205.722 127.55 205.346 127.55H196.066ZM228.251 120.198C228.251 117.805 228.843 115.932 230.025 114.579C231.215 113.218 232.92 112.538 235.142 112.538C236.441 112.538 237.514 112.76 238.362 113.204C239.209 113.642 239.818 114.244 240.187 115.009C240.378 115.406 240.348 115.679 240.095 115.829L239.285 116.301C239.011 116.458 238.768 116.329 238.557 115.912C238.331 115.481 237.962 115.078 237.449 114.702C236.936 114.326 236.202 114.138 235.245 114.138C233.536 114.138 232.291 114.671 231.512 115.737C230.74 116.797 230.353 118.284 230.353 120.198C230.353 122.112 230.74 123.602 231.512 124.668C232.291 125.728 233.536 126.258 235.245 126.258C236.229 126.258 237.015 126.032 237.603 125.581C238.198 125.13 238.628 124.658 238.895 124.166C239.107 123.769 239.353 123.65 239.633 123.807L240.484 124.289C240.73 124.433 240.751 124.706 240.546 125.109C240.143 125.895 239.486 126.552 238.577 127.078C237.668 127.598 236.523 127.857 235.142 127.857C232.92 127.857 231.215 127.181 230.025 125.827C228.843 124.467 228.251 122.59 228.251 120.198ZM263.092 114.609C262.716 114.609 262.528 114.455 262.528 114.148V113.307C262.528 112.999 262.716 112.846 263.092 112.846H273.941C274.317 112.846 274.505 112.999 274.505 113.307V114.148C274.505 114.455 274.317 114.609 273.941 114.609H269.501V126.986C269.501 127.362 269.33 127.55 268.988 127.55H268.045C267.703 127.55 267.532 127.362 267.532 126.986V114.609H263.092Z" fill="black"/>
<path d="M175.457 19.9189C175.809 19.8144 176.075 19.5255 176.151 19.1662L178.518 7.91538C178.541 7.8095 178.692 7.80976 178.714 7.91564C179.624 12.2393 180.178 14.8722 181.081 19.165C181.157 19.5242 181.423 19.8144 181.775 19.9189L191.232 22.7282C191.328 22.7565 191.328 22.8916 191.232 22.9199L181.775 25.7291C181.423 25.8337 181.157 26.1226 181.081 26.4818L178.714 37.7327C178.692 37.8386 178.541 37.8386 178.518 37.7327L176.151 26.4818C176.075 26.1226 175.809 25.8337 175.457 25.7291L166 22.9199C165.905 22.8916 165.905 22.7565 166 22.7282L175.457 19.9189Z" fill="black"/>
<path d="M146.771 25.5532C147.108 25.4299 147.353 25.1358 147.413 24.7824L149.066 15.1002C149.085 14.9893 149.244 14.9906 149.263 15.1015C149.892 18.7901 150.285 21.091 150.915 24.7812C150.975 25.1346 151.22 25.4299 151.557 25.5532L158.15 27.9678C158.237 27.9998 158.237 28.1235 158.15 28.1556L151.557 30.5701C151.22 30.6934 150.975 30.9875 150.915 31.3409L149.263 41.0231C149.244 41.134 149.085 41.134 149.066 41.0231L147.413 31.3409C147.353 30.9875 147.108 30.6934 146.771 30.5701L140.179 28.1556C140.091 28.1235 140.091 27.9998 140.179 27.9678L146.771 25.5532Z" fill="black"/>
<path d="M203.697 33.1077C204.031 32.9826 204.274 32.6884 204.333 32.3359L205.433 25.7587C205.451 25.6474 205.612 25.6478 205.63 25.7591C206.045 28.2387 206.315 29.8514 206.73 32.3357C206.789 32.6882 207.032 32.9826 207.366 33.1077L211.75 34.746C211.837 34.7784 211.837 34.901 211.75 34.9334L207.366 36.5717C207.032 36.6968 206.789 36.991 206.73 37.3435L205.63 43.9207C205.611 44.0321 205.451 44.0321 205.433 43.9207L204.333 37.3435C204.274 36.991 204.031 36.6968 203.697 36.5717L199.313 34.9334C199.226 34.901 199.226 34.7784 199.313 34.746L203.697 33.1077Z" fill="black"/>
<path d="M216.526 25.4565C216.861 25.3314 217.103 25.0372 217.162 24.6848L217.902 20.258C217.921 20.1467 218.081 20.1467 218.1 20.258C218.375 21.9049 218.564 23.0335 218.84 24.6846C218.899 25.037 219.141 25.3314 219.476 25.4565L222.421 26.5572C222.508 26.5896 222.508 26.7122 222.421 26.7446L219.476 27.8452C219.141 27.9703 218.899 28.2646 218.84 28.617L218.1 33.0437C218.081 33.1551 217.921 33.1551 217.902 33.0437L217.162 28.617C217.103 28.2646 216.861 27.9703 216.526 27.8452L213.58 26.7446C213.494 26.7122 213.494 26.5896 213.58 26.5572L216.526 25.4565Z" fill="black"/>
<circle cx="136.437" cy="37.7061" r="2.07263" fill="black"/>
<circle cx="225.685" cy="41.4629" r="1.68408" fill="black"/>
<circle cx="197.378" cy="18.4579" r="1.68408" fill="black"/>
<circle cx="109.317" cy="29.7458" r="1.68408" fill="black"/>
<circle cx="189.871" cy="38.2443" r="1.68408" fill="black"/>
<circle cx="156.722" cy="12.8385" r="1.68408" fill="black"/>
<path d="M121.262 33.7776C121.596 33.6525 121.839 33.3583 121.898 33.0058L122.998 26.4286C123.016 26.3172 123.176 26.3176 123.195 26.429C123.61 28.9086 123.88 30.5213 124.295 33.0056C124.354 33.3581 124.597 33.6525 124.931 33.7776L129.315 35.4159C129.402 35.4483 129.402 35.5709 129.315 35.6033L124.931 37.2416C124.597 37.3667 124.354 37.6609 124.295 38.0134L123.195 44.5906C123.176 44.702 123.016 44.702 122.998 44.5906L121.898 38.0134C121.839 37.6609 121.596 37.3667 121.262 37.2416L116.878 35.6033C116.791 35.5709 116.791 35.4483 116.878 35.4159L121.262 33.7776Z" fill="black"/>
<defs>
<radialGradient id="paint0_radial_1062_47" cx="0" cy="0" r="1" gradientUnits="userSpaceOnUse" gradientTransform="translate(166 3.71592) rotate(90) scale(98.7105 133.926)">
<stop/>
<stop offset="1"/>
</radialGradient>
</defs>
</svg>
