<svg xmlns="http://www.w3.org/2000/svg" width="88" height="88" fill="none"><g filter="url(#a)"><rect width="88" height="88" fill="#000" rx="10"/><path fill="url(#a)" fill-rule="evenodd" d="M33.773 24.724a1 1 0 0 0 .654-.768l1.228-6.874c.02-.11.177-.11.197 0l1.227 6.874a1 1 0 0 0 .654.768l4.893 1.713a.1.1 0 0 1 0 .188l-4.893 1.713a1 1 0 0 0-.654.768l-1.227 6.874c-.02.11-.178.11-.197 0l-1.228-6.874a1 1 0 0 0-.654-.768l-4.893-1.713a.1.1 0 0 1 0-.188l4.893-1.713ZM46.1 29.855a1 1 0 0 1-.648.77l-7.188 2.566a.1.1 0 0 0 0 .189l7.188 2.567a1 1 0 0 1 .648.77l1.801 10.292c.02.11.178.11.197 0L49.9 36.716a1 1 0 0 1 .648-.769l7.188-2.567a.1.1 0 0 0 0-.189l-7.188-2.567a1.002 1.002 0 0 1-.649-.77l-1.8-10.29c-.02-.11-.178-.111-.197-.001L46.1 29.855Zm8.352 14.055a1 1 0 0 0 .648-.77l.801-4.577c.02-.11.178-.11.198 0l.8 4.578a1 1 0 0 0 .65.77l3.187 1.138a.1.1 0 0 1 0 .188l-3.188 1.139a1 1 0 0 0-.648.769l-.801 4.578c-.02.11-.178.11-.197 0l-.802-4.578a1 1 0 0 0-.648-.77l-3.188-1.138a.1.1 0 0 1 0-.188l3.188-1.139ZM43.67 52C29.82 52 13 67 13 67s12.037-4.167 30.67-4.167C62.303 62.833 75 67 75 67S57.521 52 43.67 52ZM31.1 43.14a1 1 0 0 1-.648.77l-3.188 1.139a.1.1 0 0 0 0 .188l3.188 1.139a1 1 0 0 1 .648.769l.801 4.578c.02.11.178.11.198 0l.8-4.578a1 1 0 0 1 .65-.77l3.187-1.138a.1.1 0 0 0 0-.188l-3.188-1.139a1 1 0 0 1-.648-.77l-.801-4.577c-.02-.11-.178-.11-.197 0L31.1 43.14Z" clip-rule="evenodd"/></g><defs><radialGradient id="a" cx="0" cy="0" r="1" gradientTransform="matrix(.03371 53.65429 -87.16448 .05477 59.672 32.751)" gradientUnits="userSpaceOnUse"><stop stop-color="#fff"/><stop offset=".468" stop-color="#FF9"/><stop offset="1" stop-color="#FF9901"/></radialGradient></defs></svg>