<?xml version="1.0" standalone="no"?>
<!DOCTYPE svg PUBLIC "-//W3C//DTD SVG 20010904//EN"
 "http://www.w3.org/TR/2001/REC-SVG-20010904/DTD/svg10.dtd">
<svg version="1.0" xmlns="http://www.w3.org/2000/svg"
 width="700.000000pt" height="700.000000pt" viewBox="0 0 700.000000 700.000000"
 preserveAspectRatio="xMidYMid meet">
<metadata>
Created by potrace 1.14, written by Peter Selinger 2001-2017
</metadata>
<g transform="translate(0.000000,700.000000) scale(0.100000,-0.100000)"
fill="#000000" stroke="none">
<path d="M692 6989 c-94 -12 -167 -36 -267 -87 -73 -37 -108 -64 -186 -142
-83 -82 -103 -109 -146 -197 -97 -193 -88 123 -88 -3063 0 -3186 -9 -2870 88
-3063 43 -88 63 -115 146 -197 78 -78 113 -105 186 -142 50 -26 129 -57 175
-70 l85 -23 2815 0 2815 0 85 23 c46 13 125 44 175 70 73 37 108 64 185 142
78 77 105 112 142 185 26 50 57 129 70 175 l23 85 0 2810 c0 3188 9 2876 -86
3065 -52 105 -146 217 -237 284 -68 50 -181 104 -270 129 l-77 22 -2785 1
c-1532 1 -2813 -2 -2848 -7z m2214 -1625 c28 -153 54 -287 58 -296 8 -18 55
-37 289 -119 81 -28 147 -55 147 -59 0 -9 4 -8 -235 -91 -112 -39 -177 -67
-190 -82 -16 -18 -31 -82 -69 -297 -43 -247 -57 -303 -70 -289 -2 2 -26 132
-54 287 -34 192 -56 290 -67 302 -9 10 -103 48 -208 85 -197 68 -226 80 -216
90 3 3 96 37 205 76 109 38 207 78 217 88 13 13 31 91 69 304 32 176 56 286
63 284 5 -2 33 -129 61 -283z m927 64 c3 -13 36 -201 73 -418 55 -318 73 -399
89 -417 14 -16 109 -55 309 -126 160 -57 291 -108 293 -114 2 -5 -128 -56
-288 -113 -160 -57 -300 -111 -311 -120 -16 -13 -32 -88 -95 -440 -41 -234
-76 -427 -79 -429 -2 -2 -7 -1 -11 2 -3 4 -39 193 -79 422 -40 228 -77 423
-83 433 -7 13 -66 39 -183 81 -95 34 -231 83 -301 108 -74 26 -126 50 -124 57
2 6 131 56 288 112 156 56 294 110 307 120 20 17 30 63 93 429 39 226 72 416
74 423 7 20 22 14 28 -10z m-1244 -1675 c21 -123 38 -197 50 -213 13 -17 56
-38 155 -73 75 -28 135 -54 134 -59 -2 -6 -63 -31 -135 -57 -73 -26 -139 -53
-147 -61 -20 -16 -28 -48 -62 -247 -17 -101 -32 -163 -39 -163 -7 0 -24 73
-45 195 -38 225 -34 217 -155 260 -154 54 -185 67 -185 74 0 5 61 30 135 57
74 26 144 57 154 68 14 16 28 71 52 214 20 113 38 192 44 192 7 0 25 -77 44
-187z m1910 -5 c27 -158 37 -197 54 -215 12 -11 82 -42 155 -68 72 -26 132
-51 132 -55 0 -8 -30 -21 -185 -75 -44 -16 -89 -37 -101 -47 -17 -15 -27 -55
-55 -213 -20 -117 -38 -195 -45 -195 -6 0 -22 66 -38 163 -34 199 -42 231 -62
247 -8 8 -74 35 -147 61 -72 26 -133 51 -135 57 -1 5 59 31 134 59 99 35 142
56 155 73 12 16 29 90 50 213 19 110 37 187 44 187 6 0 24 -79 44 -192z m-752
-903 c502 -81 1115 -367 1763 -823 158 -111 408 -302 436 -333 19 -21 19 -22
-1 -16 -514 153 -1185 262 -1885 309 -240 16 -933 15 -1170 -1 -652 -43 -1335
-154 -1764 -286 -44 -13 -81 -23 -83 -21 -6 6 114 108 261 220 500 385 993
669 1446 833 171 62 429 121 600 137 78 7 302 -4 397 -19z"/>
</g>
</svg>
